<?xml version="1.0" encoding="UTF-8" standalone="no"?>
<!-- Created with Inkscape (http://www.inkscape.org/) -->

<svg
   width="5120"
   height="2160"
   viewBox="0 0 5120 2160"
   version="1.1"
   id="svg1"
   inkscape:version="1.4.3 (0d15f75, 2025-12-25)"
   sodipodi:docname="Background.svg"
   inkscape:export-filename="Background.png"
   inkscape:export-xdpi="96"
   inkscape:export-ydpi="96"
   xmlns:inkscape="http://www.inkscape.org/namespaces/inkscape"
   xmlns:sodipodi="http://sodipodi.sourceforge.net/DTD/sodipodi-0.dtd"
   xmlns:xlink="http://www.w3.org/1999/xlink"
   xmlns="http://www.w3.org/2000/svg"
   xmlns:svg="http://www.w3.org/2000/svg">
  <sodipodi:namedview
     id="namedview1"
     pagecolor="#ffffff"
     bordercolor="#000000"
     borderopacity="0.25"
     inkscape:showpageshadow="2"
     inkscape:pageopacity="0.0"
     inkscape:pagecheckerboard="0"
     inkscape:deskcolor="#d1d1d1"
     inkscape:document-units="px"
     inkscape:zoom="0.26418295"
     inkscape:cx="2462.3088"
     inkscape:cy="1027.6969"
     inkscape:window-width="1920"
     inkscape:window-height="1009"
     inkscape:window-x="-8"
     inkscape:window-y="-8"
     inkscape:window-maximized="1"
     inkscape:current-layer="layer1"
     showguides="true">
    <sodipodi:guide
       position="2560,2016.1603"
       orientation="-1,0"
       id="guide5"
       inkscape:locked="false"
       inkscape:label=""
       inkscape:color="rgb(0,134,229)" />
  </sodipodi:namedview>
  <defs
     id="defs1">
    <linearGradient
       id="linearGradient3"
       inkscape:collect="always">
      <stop
         style="stop-color:#010019;stop-opacity:1;"
         offset="0"
         id="stop3" />
      <stop
         style="stop-color:#120060;stop-opacity:1;"
         offset="0.5"
         id="stop5" />
      <stop
         style="stop-color:#7a0093;stop-opacity:1;"
         offset="1"
         id="stop4" />
    </linearGradient>
    <inkscape:path-effect
       effect="tiling"
       id="path-effect3"
       is_visible="true"
       lpeversion="1.3.1"
       unit="px"
       seed="1;1"
       lpesatellites=""
       num_rows="7"
       num_cols="1"
       gapx="0"
       gapy="25"
       offset="0"
       offset_type="false"
       scale="20"
       rotate="0"
       mirrorrowsx="false"
       mirrorrowsy="false"
       mirrorcolsx="false"
       mirrorcolsy="false"
       mirrortrans="false"
       shrink_interp="false"
       split_items="false"
       link_styles="false"
       interpolate_scalex="false"
       interpolate_scaley="true"
       interpolate_rotatex="false"
       interpolate_rotatey="true"
       random_scale="false"
       random_rotate="false"
       random_gap_y="false"
       random_gap_x="false"
       transformorigin="" />
    <inkscape:path-effect
       effect="clone_original"
       linkeditem=""
       id="path-effect2"
       is_visible="true"
       lpeversion="1"
       method="d"
       attributes=""
       css_properties=""
       allow_transforms="true" />
    <linearGradient
       id="linearGradient1"
       inkscape:collect="always">
      <stop
         style="stop-color:#ffa800;stop-opacity:1;"
         offset="0"
         id="stop1" />
      <stop
         style="stop-color:#ff0078;stop-opacity:1;"
         offset="1"
         id="stop2" />
    </linearGradient>
    <linearGradient
       inkscape:collect="always"
       xlink:href="#linearGradient1"
       id="linearGradient2"
       x1="1920"
       y1="602.3653"
       x2="1923.7853"
       y2="2160"
       gradientUnits="userSpaceOnUse"
       gradientTransform="matrix(0.60010784,0,0,0.60010784,1407.7929,825.5501)" />
    <linearGradient
       inkscape:collect="always"
       xlink:href="#linearGradient3"
       id="linearGradient4"
       x1="1920"
       y1="712.93384"
       x2="1920"
       y2="2160"
       gradientUnits="userSpaceOnUse"
       gradientTransform="scale(1.3333333,1)" />
  </defs>
  <g
     inkscape:label="Layer 1"
     inkscape:groupmode="layer"
     id="layer1">
    <rect
       style="display:inline;fill:url(#linearGradient4);stroke-width:4.6188;stroke-linejoin:round"
       id="rect3"
       width="5120"
       height="2160"
       x="0"
       y="0"
       ry="1.5" />
    <path
       id="path1"
       style="display:inline;fill:url(#linearGradient2);fill-opacity:1;stroke-width:2.40043;stroke-linejoin:round"
       d="M 2560,873.55872 A 600.10784,600.10784 0 0 0 1960.3223,1450.9504 H 3159.6777 A 600.10784,600.10784 0 0 0 2560,873.55872 Z m -600,611.46538 a 600.10784,600.10784 0 0 0 5.4994,70.4869 H 3154.5006 A 600.10784,600.10784 0 0 0 3160,1485.0241 Z m 12.5765,111.3751 a 600.10784,600.10784 0 0 0 16.9999,63.6724 h 1140.8472 a 600.10784,600.10784 0 0 0 16.9999,-63.6724 z m 34.8637,111.3751 a 600.10784,600.10784 0 0 0 27.708,56.8579 h 1049.7036 a 600.10784,600.10784 0 0 0 27.708,-56.8579 z m 61.8755,111.3751 a 600.10784,600.10784 0 0 0 39.3645,50.0422 h 902.6396 a 600.10784,600.10784 0 0 0 39.3645,-50.0422 z m 101.5694,111.3752 a 600.10784,600.10784 0 0 0 57.3866,43.2276 h 663.4566 a 600.10784,600.10784 0 0 0 57.3865,-43.2276 z m 196.1345,111.3738 a 600.10784,600.10784 0 0 0 192.9804,31.8761 600.10784,600.10784 0 0 0 192.9804,-31.8761 z" />
  </g>
  <g
     inkscape:label="Layer 1"
     inkscape:groupmode="layer"
     id="g5"
     style="display:none">
    <rect
       style="display:inline;fill:#000000;fill-opacity:1;stroke-width:4;stroke-linejoin:round"
       id="rect5"
       width="3840"
       height="2160"
       x="0"
       y="0"
       ry="1.5" />
    <path
       id="path5"
       style="display:inline;fill:#ffffff;fill-opacity:1;stroke-width:3.00054;stroke-linejoin:round"
       d="M 1920,329.86518 A 750.1348,750.1348 0 0 0 1170.4029,1051.6047 H 2669.5971 A 750.1348,750.1348 0 0 0 1920,329.86518 Z m -750,764.33172 a 750.1348,750.1348 0 0 0 6.8742,88.1086 H 2663.1257 A 750.1348,750.1348 0 0 0 2670,1094.1969 Z m 15.7206,139.2188 a 750.1348,750.1348 0 0 0 21.2499,79.5905 h 1426.059 a 750.1348,750.1348 0 0 0 21.2499,-79.5905 z m 43.5796,139.2189 a 750.1348,750.1348 0 0 0 34.6351,71.0724 h 1312.1294 a 750.1348,750.1348 0 0 0 34.6351,-71.0724 z m 77.3444,139.2189 a 750.1348,750.1348 0 0 0 49.2056,62.5527 h 1128.2995 a 750.1348,750.1348 0 0 0 49.2057,-62.5527 z m 126.9618,139.2189 a 750.1348,750.1348 0 0 0 71.7332,54.0346 h 829.3208 a 750.1348,750.1348 0 0 0 71.7331,-54.0346 z m 245.1681,139.2173 a 750.1348,750.1348 0 0 0 241.2255,39.8451 750.1348,750.1348 0 0 0 241.2255,-39.8451 z" />
  </g>
</svg>
